{
  "accessors": [
    {
      "bufferView": 2,
      "componentType": 5126,
      "count": 6601,
      "max": [
        274.51519775390625,
        200.6309814453125,
        223.50413513183594
      ],
      "min": [
        -274.51519775390625,
        -200.63096618652344,
        -223.50413513183594
      ],
      "type": "VEC3"
    },
    {
      "bufferView": 2,
      "byteOffset": 79212,
      "componentType": 5126,
      "count": 6601,
      "max": [
        1.0,
        1.0,
        1.0
      ],
      "min": [
        -1.0,
        -1.0,
        -1.0
      ],
      "type": "VEC3"
    },
    {
      "bufferView": 1,
      "componentType": 5126,
      "count": 6601,
      "max": [
        0.9909235239028931,
        0.9990217685699463
      ],
      "min": [
        0.006458720192313194,
        0.01061546802520752
      ],
      "type": "VEC2"
    },
    {
      "bufferView": 0,
      "componentType": 5125,
      "count": 18954,
      "type": "SCALAR"
    },
    {
      "bufferView": 2,
      "byteOffset": 158424,
      "componentType": 5126,
      "count": 415,
      "max": [
        236.8028564453125,
        39.8863525390625,
        241.56863403320313
      ],
      "min": [
        -235.90933227539063,
        -22.647491455078125,
        -232.04934692382813
      ],
      "type": "VEC3"
    },
    {
      "bufferView": 2,
      "byteOffset": 163404,
      "componentType": 5126,
      "count": 415,
      "max": [
        0.9984422326087952,
        0.9997113347053528,
        0.9998493790626526
      ],
      "min": [
        -0.9984360337257385,
        -0.9997031688690186,
        -0.9995579719543457
      ],
      "type": "VEC3"
    },
    {
      "bufferView": 1,
      "byteOffset": 52808,
      "componentType": 5126,
      "count": 415,
      "max": [
        0.9927479028701782,
        0.7971996665000916
      ],
      "min": [
        0.6371038556098938,
        0.02026471495628357
      ],
      "type": "VEC2"
    },
    {
      "bufferView": 0,
      "byteOffset": 75816,
      "componentType": 5125,
      "count": 738,
      "type": "SCALAR"
    },
    {
      "bufferView": 2,
      "byteOffset": 168384,
      "componentType": 5126,
      "count": 170,
      "max": [
        59.19197082519531,
        76.05641174316406,
        191.84185791015625
      ],
      "min": [
        5.684341886080802e-14,
        -84.00141906738281,
        -191.60885620117188
      ],
      "type": "VEC3"
    },
    {
      "bufferView": 2,
      "byteOffset": 170424,
      "componentType": 5126,
      "count": 170,
      "max": [
        1.0,
        1.0,
        1.0
      ],
      "min": [
        -1.0,
        -1.0,
        -1.0
      ],
      "type": "VEC3"
    },
    {
      "bufferView": 1,
      "byteOffset": 56128,
      "componentType": 5126,
      "count": 170,
      "max": [
        0.8626060485839844,
        0.6759166717529297
      ],
      "min": [
        0.2524259686470032,
        0.16795241832733154
      ],
      "type": "VEC2"
    },
    {
      "bufferView": 0,
      "byteOffset": 78768,
      "componentType": 5125,
      "count": 348,
      "type": "SCALAR"
    },
    {
      "bufferView": 2,
      "byteOffset": 172464,
      "componentType": 5126,
      "count": 439,
      "max": [
        2816.287353515625,
        2816.287353515625,
        2816.28759765625
      ],
      "min": [
        -2816.2880859375,
        -2816.287353515625,
        -2816.288818359375
      ],
      "type": "VEC3"
    },
    {
      "bufferView": 2,
      "byteOffset": 177732,
      "componentType": 5126,
      "count": 439,
      "max": [
        1.0,
        1.0,
        1.0
      ],
      "min": [
        -1.0,
        -1.0,
        -1.0
      ],
      "type": "VEC3"
    },
    {
      "bufferView": 1,
      "byteOffset": 57488,
      "componentType": 5126,
      "count": 439,
      "max": [
        1.2570254802703857,
        0.9999999403953552
      ],
      "min": [
        0.25702551007270813,
        -5.960464477539063e-08
      ],
      "type": "VEC2"
    },
    {
      "bufferView": 1,
      "byteOffset": 61000,
      "componentType": 5126,
      "count": 439,
      "max": [
        1.2570254802703857,
        0.9999999403953552
      ],
      "min": [
        0.25702551007270813,
        -5.960464477539063e-08
      ],
      "type": "VEC2"
    },
    {
      "bufferView": 0,
      "byteOffset": 80160,
      "componentType": 5125,
      "count": 2280,
      "type": "SCALAR"
    },
    {
      "bufferView": 3,
      "componentType": 5126,
      "count": 125,
      "max": [
        4.166666507720947
      ],
      "min": [
        0.0416666679084301
      ],
      "type": "SCALAR"
    },
    {
      "bufferView": 5,
      "componentType": 5126,
      "count": 125,
      "max": [
        3.3122479601572607e-16,
        0.9981447458267212,
        2.1030359007556383e-16,
        1.0
      ],
      "min": [
        -7.190235049137181e-16,
        -0.8631525039672852,
        -7.102064742679521e-16,
        -0.4957255423069
      ],
      "type": "VEC4"
    },
    {
      "bufferView": 3,
      "byteOffset": 500,
      "componentType": 5126,
      "count": 124,
      "max": [
        4.166666507720947
      ],
      "min": [
        0.0416666679084301
      ],
      "type": "SCALAR"
    },
    {
      "bufferView": 5,
      "byteOffset": 2000,
      "componentType": 5126,
      "count": 124,
      "max": [
        0.999993085861206,
        1.4558451572827192e-17,
        4.923307206638451e-17,
        1.0
      ],
      "min": [
        -0.8598254919052124,
        -1.7163031563519862e-17,
        -4.321467798301609e-17,
        -0.49465593695640564
      ],
      "type": "VEC4"
    },
    {
      "bufferView": 3,
      "byteOffset": 996,
      "componentType": 5126,
      "count": 125,
      "max": [
        4.166666507720947
      ],
      "min": [
        0.0416666679084301
      ],
      "type": "SCALAR"
    },
    {
      "bufferView": 4,
      "componentType": 5126,
      "count": 125,
      "max": [
        410.6580810546875,
        439.9309997558594,
        214.80979919433594
      ],
      "min": [
        8.407241821289063,
        183.83758544921875,
        153.0596160888672
      ],
      "type": "VEC3"
    },
    {
      "bufferView": 3,
      "byteOffset": 1496,
      "componentType": 5126,
      "count": 125,
      "max": [
        4.166666507720947
      ],
      "min": [
        0.0416666679084301
      ],
      "type": "SCALAR"
    },
    {
      "bufferView": 5,
      "byteOffset": 3984,
      "componentType": 5126,
      "count": 125,
      "max": [
        0.008235860615968704,
        0.09478031098842621,
        0.15081730484962463,
        0.9967752695083618
      ],
      "min": [
        -0.10675811022520065,
        -0.010715963318943977,
        0.00019823573529720306,
        0.9839730858802795
      ],
      "type": "VEC4"
    }
  ],
  "animations": [
    {
      "channels": [
        {
          "sampler": 0,
          "target": {
            "node": 6,
            "path": "rotation"
          }
        },
        {
          "sampler": 1,
          "target": {
            "node": 8,
            "path": "rotation"
          }
        },
        {
          "sampler": 2,
          "target": {
            "node": 4,
            "path": "translation"
          }
        },
        {
          "sampler": 3,
          "target": {
            "node": 4,
            "path": "rotation"
          }
        }
      ],
      "name": "Take 001",
      "samplers": [
        {
          "input": 17,
          "interpolation": "LINEAR",
          "output": 18
        },
        {
          "input": 19,
          "interpolation": "LINEAR",
          "output": 20
        },
        {
          "input": 21,
          "interpolation": "LINEAR",
          "output": 22
        },
        {
          "input": 23,
          "interpolation": "LINEAR",
          "output": 24
        }
      ]
    }
  ],
  "asset": {
    "extras": {
      "author": "David Jávorcsík (https://sketchfab.com/Redlobo)",
      "license": "CC-BY-4.0 (http://creativecommons.org/licenses/by/4.0/)",
      "source": "https://sketchfab.com/3d-models/dae-game-art-1-flying-circus-621e8fb8095a4506ad5de2e9bf20c55a",
      "title": "DAE Game Art 1 - Flying Circus"
    },
    "generator": "Sketchfab-15.10.0",
    "version": "2.0"
  },
  "bufferViews": [
    {
      "buffer": 0,
      "byteLength": 89280,
      "name": "floatBufferViews",
      "target": 34963
    },
    {
      "buffer": 0,
      "byteLength": 64512,
      "byteOffset": 89280,
      "byteStride": 8,
      "name": "floatBufferViews",
      "target": 34962
    },
    {
      "buffer": 0,
      "byteLength": 183000,
      "byteOffset": 153792,
      "byteStride": 12,
      "name": "floatBufferViews",
      "target": 34962
    },
    {
      "buffer": 0,
      "byteLength": 1996,
      "byteOffset": 336792,
      "name": "floatBufferViews"
    },
    {
      "buffer": 0,
      "byteLength": 1500,
      "byteOffset": 338788,
      "byteStride": 12,
      "name": "floatBufferViews"
    },
    {
      "buffer": 0,
      "byteLength": 5984,
      "byteOffset": 340288,
      "byteStride": 16,
      "name": "floatBufferViews"
    }
  ],
  "buffers": [
    {
      "byteLength": 346272,
      "uri": "scene.bin"
    }
  ],
  "extensionsUsed": [
    "KHR_materials_specular"
  ],
  "images": [
    {
      "uri": "textures/T_PlaneTexture_F_baseColor.png"
    },
    {
      "uri": "textures/T_Sky_baseColor.png"
    }
  ],
  "materials": [
    {
      "alphaCutoff": 0.7299069863831965,
      "alphaMode": "MASK",
      "doubleSided": true,
      "extensions": {
        "KHR_materials_specular": {
          "specularColorFactor": [
            1.0,
            1.0,
            1.0
          ],
          "specularFactor": 0.0
        }
      },
      "name": "T_PlaneTexture_F",
      "pbrMetallicRoughness": {
        "baseColorTexture": {
          "index": 0
        },
        "metallicFactor": 0.0,
        "roughnessFactor": 0.6
      }
    },
    {
      "extensions": {
        "KHR_materials_specular": {
          "specularColorFactor": [
            1.0,
            1.0,
            1.0
          ],
          "specularFactor": 0.0
        }
      },
      "name": "T_Sky",
      "pbrMetallicRoughness": {
        "baseColorTexture": {
          "index": 1
        },
        "metallicFactor": 0.0,
        "roughnessFactor": 0.6
      }
    }
  ],
  "meshes": [
    {
      "name": "BODY_T_PlaneTexture_F_0",
      "primitives": [
        {
          "attributes": {
            "NORMAL": 1,
            "POSITION": 0,
            "TEXCOORD_0": 2
          },
          "indices": 3,
          "material": 0,
          "mode": 4
        }
      ]
    },
    {
      "name": "TopPropeller_T_PlaneTexture_F_0",
      "primitives": [
        {
          "attributes": {
            "NORMAL": 5,
            "POSITION": 4,
            "TEXCOORD_0": 6
          },
          "indices": 7,
          "material": 0,
          "mode": 4
        }
      ]
    },
    {
      "name": "FrontPropeller_T_PlaneTexture_F_0",
      "primitives": [
        {
          "attributes": {
            "NORMAL": 9,
            "POSITION": 8,
            "TEXCOORD_0": 10
          },
          "indices": 11,
          "material": 0,
          "mode": 4
        }
      ]
    },
    {
      "name": "pSphere1_T_Sky_0",
      "primitives": [
        {
          "attributes": {
            "NORMAL": 13,
            "POSITION": 12,
            "TEXCOORD_0": 14,
            "TEXCOORD_1": 15
          },
          "indices": 16,
          "material": 1,
          "mode": 4
        }
      ]
    }
  ],
  "nodes": [
    {
      "children": [
        1
      ],
      "matrix": [
        1.0,
        0.0,
        0.0,
        0.0,
        0.0,
        2.220446049250313e-16,
        -1.0,
        0.0,
        0.0,
        1.0,
        2.220446049250313e-16,
        0.0,
        0.0,
        0.0,
        0.0,
        1.0
      ],
      "name": "Sketchfab_model"
    },
    {
      "children": [
        2
      ],
      "matrix": [
        0.009999999776482582,
        0.0,
        0.0,
        0.0,
        0.0,
        0.0,
        0.009999999776482582,
        0.0,
        0.0,
        -0.009999999776482582,
        0.0,
        0.0,
        0.0,
        0.0,
        0.0,
        1.0
      ],
      "name": "9c3cf2de098e4a4e8bf264c8907574ea.fbx"
    },
    {
      "children": [
        3
      ],
      "name": "Object_2"
    },
    {
      "children": [
        4,
        10
      ],
      "name": "RootNode"
    },
    {
      "children": [
        5,
        6,
        8
      ],
      "name": "BODY",
      "rotation": [
        -0.09129642695188522,
        -0.0070818704552948475,
        0.01478642225265503,
        0.995688796043396
      ],
      "translation": [
        42.07026290893555,
        193.86544799804688,
        213.59625244140625
      ]
    },
    {
      "mesh": 0,
      "name": "BODY_T_PlaneTexture_F_0"
    },
    {
      "children": [
        7
      ],
      "name": "TopPropeller",
      "rotation": [
        -2.781265769533997e-17,
        0.036979325115680695,
        1.0291972466901423e-18,
        0.9993160367012024
      ],
      "translation": [
        -24.685977935791016,
        200.6309814453125,
        -2.4953765869140625
      ]
    },
    {
      "mesh": 1,
      "name": "TopPropeller_T_PlaneTexture_F_0"
    },
    {
      "children": [
        9
      ],
      "name": "FrontPropeller",
      "rotation": [
        0.9102511405944824,
        -4.303801081573855e-19,
        1.1486539144665284e-18,
        -0.4140566289424896
      ],
      "translation": [
        -326.4937744140625,
        -23.56011962890625,
        0.6837615966796875
      ]
    },
    {
      "mesh": 2,
      "name": "FrontPropeller_T_PlaneTexture_F_0"
    },
    {
      "children": [
        11
      ],
      "name": "pSphere1",
      "translation": [
        26.985578536987305,
        438.0361022949219,
        -2.124530076980591
      ]
    },
    {
      "mesh": 3,
      "name": "pSphere1_T_Sky_0"
    }
  ],
  "samplers": [
    {
      "magFilter": 9729,
      "minFilter": 9987,
      "wrapS": 10497,
      "wrapT": 10497
    }
  ],
  "scene": 0,
  "scenes": [
    {
      "name": "Sketchfab_Scene",
      "nodes": [
        0
      ]
    }
  ],
  "textures": [
    {
      "sampler": 0,
      "source": 0
    },
    {
      "sampler": 0,
      "source": 1
    }
  ]
}
